<svg id="Calque_1" data-name="Calque 1" xmlns="http://www.w3.org/2000/svg" xmlns:xlink="http://www.w3.org/1999/xlink" viewBox="0 180 847.96 699.31"><defs><style>.cls-1,.cls-8{fill:none;}.cls-2{clip-path:url(#clip-path);}.cls-3{clip-path:url(#clip-path-2);}.cls-4{fill:#f59f0c;}.cls-4,.cls-5{fill-rule:evenodd;}.cls-5,.cls-6,.cls-7{fill:#0e6779;}.cls-7{font-size:106.92px;font-family:MyriadPro-Regular, Myriad Pro;}.cls-8{stroke:#0e6779;stroke-linecap:round;stroke-miterlimit:10;stroke-width:3px;}</style><clipPath id="clip-path" transform="translate(-128.64 160.66)"><rect class="cls-1" width="1100.94" height="720"/></clipPath><clipPath id="clip-path-2" ><rect class="cls-1" x="-177.11" width="1440" height="720"/></clipPath></defs><g class="cls-2"><g class="cls-3"><g class="cls-3"><path class="cls-4" d="M423.91,332.19c-7.12,17.19-12.77,30.79-17.62,42.43A21.19,21.19,0,0,1,392,387.26a94.88,94.88,0,0,0-43.14,25.89l54.51-122.3H445L500,414c-12-12.59-26.37-21.88-44.24-26.82a21.22,21.22,0,0,1-14.36-12.68c-4.7-11.35-10.3-24.86-17.52-42.31" transform="translate(-128.64 160.66)"/><path class="cls-5" d="M322.25,472.85H352a21.31,21.31,0,0,0,18.56-10.33,63.27,63.27,0,0,1,106.94,0,21.3,21.3,0,0,0,18.56,10.33h29.76C503.17,422,476.33,392.51,424,392.51S344.91,422,322.25,472.85" transform="translate(-128.64 160.66)"/><path class="cls-5" d="M178.81,532.28l-.05-22.34-13,21.82a2.33,2.33,0,0,1-2.06,1.17h-2.14a2.34,2.34,0,0,1-2-1.15l-11-18.12-1.89-3.12-9.29-15.26a5.3,5.3,0,0,1-.81-2.9v-1h5.75a5.45,5.45,0,0,1,4.78,2.71l15.77,26.19,15.52-26.16a5.47,5.47,0,0,1,4.8-2.74h5.66l.13,46.51h-4.53a5.59,5.59,0,0,1-5.58-5.57m-32.2-15.54a5.35,5.35,0,0,0-.81-2.89l-9.29-15.32v39.32H141a5.6,5.6,0,0,0,5.58-5.58Z" transform="translate(-128.64 160.66)"/><path class="cls-5" d="M954.69,529.74q4.24,0,6.41-1.39a4.78,4.78,0,0,0,2.16-4.32,4.88,4.88,0,0,0-2.9-4.76,27.86,27.86,0,0,0,4.48-2.22,5.56,5.56,0,0,1,7.75,2,12.07,12.07,0,0,1,1.49,6.12,10.74,10.74,0,0,1-4.75,9.4q-4.74,3.29-13.85,3.29h-24V520.64h5.11a5.6,5.6,0,0,1,5.58,5.58v3.52ZM931.44,516v2.26h22c6.08,0,12.72-4.13,16.7-8.77a11.3,11.3,0,0,0,1.63-6,10.31,10.31,0,0,0-4.55-8.84q-4.56-3.25-13.05-3.26H931.44V508h5.11a5.6,5.6,0,0,0,5.58-5.58v-3h10.7a11,11,0,0,1,6,1.36,4.58,4.58,0,0,1,2.06,4.09,4.67,4.67,0,0,1-2.06,4.12,10.79,10.79,0,0,1-6,1.39H937a5.59,5.59,0,0,0-5.58,5.58" transform="translate(-128.64 160.66)"/><path class="cls-5" d="M294.36,501.91c-1.82,4.39-3.27,7.86-4.51,10.84A5.42,5.42,0,0,1,286.2,516a24.29,24.29,0,0,0-11,6.61l13.93-31.25h10.63l14.07,31.47A24.26,24.26,0,0,0,302.5,516a5.42,5.42,0,0,1-3.67-3.24l-4.47-10.81m-26,35.94H276a5.45,5.45,0,0,0,4.74-2.64,16.16,16.16,0,0,1,27.32,0,5.45,5.45,0,0,0,4.74,2.64h7.61c-5.79-13-12.65-20.53-26-20.53s-20.22,7.54-26,20.53" transform="translate(-128.64 160.66)"/><path class="cls-5" d="M839.09,529.21v8.64h-36V526.42a5.6,5.6,0,0,1,5.58-5.58h5.12v8.37Zm-36-10.76v-2.79a5.6,5.6,0,0,1,5.58-5.58h22.72v2.79a5.59,5.59,0,0,1-5.58,5.58Zm0-10.76V491.34h35.15v3.06a5.6,5.6,0,0,1-5.59,5.58H813.78v2.13a5.6,5.6,0,0,1-5.58,5.58Z" transform="translate(-128.64 160.66)"/><path class="cls-5" d="M443.47,513.86h4.25v18.87a28,28,0,0,1-8.77,4.39l-1.06.3v-18a5.59,5.59,0,0,1,5.58-5.59m-13.35,24.76a5.58,5.58,0,0,0,5.38-5.57v-4.52a18.42,18.42,0,0,1-6,1,15.87,15.87,0,0,1-7.81-1.9,13.65,13.65,0,0,1-5.35-5.28,16.56,16.56,0,0,1,0-15.48,13.39,13.39,0,0,1,5.38-5.25,16.44,16.44,0,0,1,7.91-1.86,15.82,15.82,0,0,1,8.78,2.53,5.52,5.52,0,0,0,6.82-.58l3.33-3.07a21.9,21.9,0,0,0-8.37-6,28.64,28.64,0,0,0-11.09-2.06A27.68,27.68,0,0,0,416,493.64a22.83,22.83,0,0,0-9.14,8.57,25,25,0,0,0,0,24.78,22.94,22.94,0,0,0,9.07,8.56,27.16,27.16,0,0,0,13,3.09c.4,0,.8,0,1.2,0" transform="translate(-128.64 160.66)"/><path class="cls-5" d="M579.06,491.34v46.51h-5.18a5.6,5.6,0,0,1-5.58-5.58V518.78H536.41v-3.52a5.6,5.6,0,0,1,5.58-5.58H568.3V496.92a5.6,5.6,0,0,1,5.58-5.58Zm-31.89,29.83H536.41v16.68h5.18a5.59,5.59,0,0,0,5.58-5.58Zm-10.76-13.88h5.18a5.59,5.59,0,0,0,5.58-5.58V491.34H542a5.6,5.6,0,0,0-5.58,5.58Z" transform="translate(-128.64 160.66)"/><path class="cls-5" d="M698.25,508.22a7.33,7.33,0,0,0-2.53-6q-2.52-2.1-7.37-2.1h-8.77v8.24a5.59,5.59,0,0,1-5.58,5.58h-5.18V491.34H689a25.94,25.94,0,0,1,10.73,2.06,15.41,15.41,0,0,1,9.46,14.82,15.16,15.16,0,0,1-9.56,14.68l10.43,15h-8.64a5.43,5.43,0,0,1-4.59-2.41l-7.3-10.55H668.82v-3a5.59,5.59,0,0,1,5.58-5.58h14q4.85,0,7.37-2.12a7.37,7.37,0,0,0,2.53-6m-18.67,19.06H674.4a5.59,5.59,0,0,0-5.58,5.58v5H674a5.6,5.6,0,0,0,5.58-5.58Z" transform="translate(-128.64 160.66)"/><path class="cls-5" d="M799.7,291.91l-59.54,182H694.92l-40-123.24L617.19,463l-16.47-51.3a20.91,20.91,0,0,1,.09-13.62l30.61-91.3a21.54,21.54,0,0,1,20.71-14.89h7.39A21.54,21.54,0,0,1,680.3,307L717,420.87l37.44-113.94a21.54,21.54,0,0,1,20.75-15Zm-188.81,182L557.31,307.07a21.55,21.55,0,0,0-20.8-15.16H508.76l59.8,182Z" transform="translate(-128.64 160.66)"/><path class="cls-4" d="M873,333.25c-7.12,17.18-12.77,30.79-17.62,42.43a21.19,21.19,0,0,1-14.28,12.64A94.68,94.68,0,0,0,798,414.21l54.51-122.3h41.6l55.07,123.15c-12-12.59-26.38-21.88-44.25-26.82a21.17,21.17,0,0,1-14.35-12.69c-4.71-11.35-10.3-24.86-17.53-42.3" transform="translate(-128.64 160.66)"/><path class="cls-5" d="M771.36,473.91h29.76a21.3,21.3,0,0,0,18.56-10.33,63.27,63.27,0,0,1,106.94,0,21.3,21.3,0,0,0,18.56,10.33h29.76c-22.66-50.84-49.5-80.34-101.79-80.34S794,423.07,771.36,473.91" transform="translate(-128.64 160.66)"/><path class="cls-6" d="M406.44-74.45c1.25-1.78,2-2.66,2.19-2.66s.26.31.26.93A15.26,15.26,0,0,1,407-69.44a22.5,22.5,0,0,1-7.73,8.67q-5.48,3.71-17,6.52A131.89,131.89,0,0,1,351-50.75q-19,0-24.59-2.61-4.8-2.25-4.81-9.55,0-10.25,1.41-10.24c.28,0,.54.72.79,2.14a6.2,6.2,0,0,0,1.3,3.4q6,5.94,28.77,6,32.47,0,46.83-7.73a16.39,16.39,0,0,0,5.74-5.06ZM359.92-36.08q2.61,2,2.67,3.81c0,1.22-.73,2.7-2.3,4.44s-2.51,2.42-3.13,2.45a60.67,60.67,0,0,0-5.75-4.33c-.48-.28-.52-.66-.1-1.15a46.13,46.13,0,0,0,5.48-6.89c.56,0,1.6.55,3.13,1.67Z" transform="translate(-128.64 160.66)"/><text class="cls-7" transform="translate(262.35 98.47)"> </text><text class="cls-7" transform="translate(303.94 89.49)">  </text><path class="cls-6" d="M508.84-76.85c2.65-3.21,4.35-4.81,5.12-4.81.14,0,.21.19.21.58a12.85,12.85,0,0,1-.55,3,5.94,5.94,0,0,1-1,2.34Q509-72.37,509-71.37c0,.24.56.88,1.7,1.9a5.33,5.33,0,0,1,1.69,4.15q0,6.22-5.95,10.81c-3.13,2.44-5.79,3.65-8,3.65-.45,0-.68-.17-.68-.52,0-.55,1.61-1.93,4.83-4.12s4.83-3.92,4.83-5.17a3.69,3.69,0,0,0-1.51-2.56,4.91,4.91,0,0,1-1.52-3.86q0-4.23,4.44-9.76Zm20.29-21.88c2-4.1,3.15-6.16,3.61-6.16.07.07.1.31.1.73q0,5.7-3.6,26.11A53.53,53.53,0,0,1,526-66.36c-1.18,2.75-2.16,4.12-2.92,4.12-.25,0-.37-.29-.37-.88q0,.32,1.57-11.54.82-7.73,1.88-16.71a45.49,45.49,0,0,1,3-7.36ZM555.6-80a11.32,11.32,0,0,1,1.62,5.9q0,4.59-3.08,11.38-3.24,7.11-6.58,8.72a42.25,42.25,0,0,1-6.32,2q-6,1.66-6.26,1.25a.42.42,0,0,1-.06-.21q0-.74,8.28-5.77t8.27-7.54a1.58,1.58,0,0,0-.21-.79,6.31,6.31,0,0,1-3.39.89c-3.65,0-5.48-1.49-5.48-4.49q0-1.56,2.56-6.84c.73-1.67,1.48-3.35,2.24-5.06q1.51-2.56,3.76-2.56,2.82,0,4.65,3.08Zm18.74,1.15a13.15,13.15,0,0,1,2.77,7.94q0,3.6-3.13,9.29-2.88,5.11-5.23,6.94a20,20,0,0,1-6.26,2.92A19.33,19.33,0,0,1,557-50.59c-.42,0-.63-.13-.63-.37q0-.74,7.52-5.22t7.52-7.47q0-2.19-2.61-5.32a26.63,26.63,0,0,0-3-3.39q0-.73,2.19-5.22c1.47-3,2.3-4.49,2.51-4.49q1.46,0,3.81,3.18Z" transform="translate(-128.64 160.66)"/><path class="cls-6" d="M644.48,225.66q.21,0,.21.39a6,6,0,0,1-.55,2.07,3.57,3.57,0,0,1-1,1.6c-2.44,1.51-3.66,2.5-3.66,2.95,0,.17.57.6,1.7,1.3a3.2,3.2,0,0,1,1.7,2.83q0,4.23-6,7.36-4.69,2.49-8,2.49c-.45,0-.68-.12-.68-.36s1.61-1.31,4.83-2.81S638,240.81,638,240c0-.54-.51-1.13-1.52-1.74a2.92,2.92,0,0,1-1.51-2.63c0-1.93,1.48-4.14,4.44-6.66,2.64-2.18,4.35-3.27,5.11-3.27" transform="translate(-128.64 160.66)"/><path class="cls-6" d="M661.22,202.48a1.42,1.42,0,0,1,.1.73q0,5.7-3.6,26.11A53,53,0,0,1,654.43,241c-1.18,2.75-2.16,4.12-2.92,4.12-.25,0-.37-.29-.37-.88q0,.31,1.57-11.54.82-7.72,1.88-16.71a45,45,0,0,1,3-7.36c1.94-4.1,3.15-6.16,3.6-6.16" transform="translate(-128.64 160.66)"/><path class="cls-6" d="M680.61,233.23q0,4.59-3.08,11.38-3.24,7.11-6.58,8.72a42,42,0,0,1-6.31,2q-6,1.67-6.27,1.25a.54.54,0,0,1,0-.21q0-.74,8.27-5.77t8.28-7.54a1.52,1.52,0,0,0-.21-.78,6.42,6.42,0,0,1-3.39.88c-3.66,0-5.48-1.49-5.48-4.49q0-1.56,2.55-6.84c.73-1.67,1.48-3.35,2.25-5.06,1-1.7,2.26-2.56,3.76-2.56,1.88,0,3.42,1,4.64,3.08a11.32,11.32,0,0,1,1.62,5.9" transform="translate(-128.64 160.66)"/><path class="cls-6" d="M705.31,227.37c0,1.66-1,3.81-3.13,6.43a18.69,18.69,0,0,1-5.22,4.8,24.9,24.9,0,0,1-6.26,2,26.91,26.91,0,0,1-5.49.83c-.41,0-.62-.08-.62-.25,0-.34,2.5-1.54,7.52-3.61s7.51-3.79,7.51-5.16q0-1.52-2.61-3.68a21.77,21.77,0,0,0-3-2.35c0-.34.73-1.54,2.19-3.61s2.3-3.11,2.51-3.11q1.46,0,3.81,2.21a7.54,7.54,0,0,1,2.76,5.48" transform="translate(-128.64 160.66)"/><path class="cls-6" d="M511.06,233.2c.18,0,.27.31.27.94a15.25,15.25,0,0,1-1.94,6.73,22.55,22.55,0,0,1-7.72,8.67q-5.49,3.71-17,6.52a131.32,131.32,0,0,1-31.22,3.5q-19,0-24.59-2.61-4.8-2.25-4.8-9.55c0-6.82.47-10.24,1.41-10.24.27,0,.54.72.78,2.14a6.12,6.12,0,0,0,1.31,3.4q5.94,6,28.76,6,32.47,0,46.83-7.73a16.2,16.2,0,0,0,5.74-5.06c1.25-1.78,2-2.66,2.19-2.66M465,278c0,1.22-.73,2.7-2.3,4.44s-2.5,2.42-3.13,2.45a63.6,63.6,0,0,0-5.74-4.33c-.49-.28-.53-.66-.11-1.15a45.44,45.44,0,0,0,5.48-6.89c.56,0,1.6.56,3.14,1.67,1.74,1.32,2.62,2.59,2.66,3.81" transform="translate(-128.64 160.66)"/><path class="cls-6" d="M535,248.07q-3.24,3.19-8,8.78a97.88,97.88,0,0,1-7.67,8.14,41,41,0,0,1-12,7.73q-5.6,2.4-8.62,2.4c-.73,0-1.09-.13-1.09-.37,0-.42.89-1,2.66-1.88a64.25,64.25,0,0,0,18.32-12.48q2.61-2.44,13.94-15.13a1.6,1.6,0,0,1,1.15-.53c1.22,0,1.83.72,1.83,2.14a1.56,1.56,0,0,1-.52,1.2" transform="translate(-128.64 160.66)"/><path class="cls-6" d="M563.32,233.35c.59,0,.89.4.89,1.2a5.81,5.81,0,0,1-.94,3c-.63,1-1.3,1.57-2,1.57a6.46,6.46,0,0,1-5.84-2.82,30,30,0,0,1-9.71,5.63A34.47,34.47,0,0,0,535,248.07a1.8,1.8,0,0,1-1.31.58c-1.22,0-1.82-.65-1.82-1.93a2,2,0,0,1,.62-1.46,39.15,39.15,0,0,1,11.8-8.93l7.93-3.87a5.48,5.48,0,0,0-1.56-2.48,3,3,0,0,0-2.09-1,3.37,3.37,0,0,0-1,.26c-.49.17-.8.21-.94.1a1,1,0,0,1-.37-.88c0-1.33.78-2.7,2.35-4.13a9.83,9.83,0,0,1,6.63-2.77q7.51-.36,7.78,5.17.11,2.19-3.66,5.9a9.84,9.84,0,0,0,4,.73m-5.9-42.28c0,1.22-.73,2.69-2.29,4.43s-2.51,2.42-3.14,2.46a60.51,60.51,0,0,0-5.74-4.34c-.49-.27-.52-.66-.1-1.14a46.67,46.67,0,0,0,5.48-6.89c.55,0,1.6.55,3.13,1.67q2.61,2,2.66,3.81" transform="translate(-128.64 160.66)"/><path class="cls-6" d="M587.28,223.85q0,1.93-2.37,5.4t-3.52,3.48c-.35,0-1.08-.67-2.2-2s-2.12-2-3-2q-2,0-7.2,5.19t-7.73,5.2c-.59,0-.88-.41-.88-1.21a5.77,5.77,0,0,1,1-2.94c.65-1.07,1.32-1.6,2-1.6q2.46,0,8-5.22,6.17-5.74,9.19-6.68l3-2.82c0,.28.62,1,1.87,2.25s1.88,2.21,1.88,3" transform="translate(-128.64 160.66)"/><path class="cls-6" d="M590.52,181.36q.32,0-1.93,13.57-.57,4.44-2.3,13.16-.46,2-1.93,6.57a15.21,15.21,0,0,0-.83,3.89c0,.79-.58,1.76-1.73,2.93s-2.09,1.75-2.82,1.75q2.35-4.29,3.71-13.63.94-7.26,1.83-14.51a41.16,41.16,0,0,1,2.61-7.78q2.4-6,3.39-5.95" transform="translate(-128.64 160.66)"/><path class="cls-6" d="M609.11,205.42a1.42,1.42,0,0,1,.1.73q0,5.7-3.6,26.11A53.53,53.53,0,0,1,602.32,244c-1.18,2.75-2.16,4.12-2.92,4.12-.25,0-.37-.29-.37-.88q0,.31,1.57-11.54.82-7.72,1.88-16.71a45.49,45.49,0,0,1,3-7.36c2-4.1,3.15-6.16,3.61-6.16" transform="translate(-128.64 160.66)"/><line class="cls-8" x1="584.09" y1="403.06" x2="846.46" y2="403.06"/><line class="cls-8" x1="10.79" y1="403.06" x2="281.05" y2="403.06"/><path class="cls-5" d="M313.81,380.87q0-3.45-.2-6.79-1.39-23.41-12.56-41.6a83.4,83.4,0,0,0-11.54-14.8,89,89,0,0,0-24.23-17.42q-23-11.44-53-11.44H128.64v12.89a22.14,22.14,0,0,0,22.07,22.09h59.47q27.62,0,44,15.38a49.38,49.38,0,0,1,10.85,14.76,57.87,57.87,0,0,1,5.33,20.53c.18,2.08.26,4.21.26,6.4q0,16.44-6.42,28.62a49.25,49.25,0,0,1-10,13.07Q237.79,438,210.18,438H150.71A22.13,22.13,0,0,0,128.64,460v12.89h83.64q3.75,0,7.39-.18,25.47-1.25,45.61-11.26A89.29,89.29,0,0,0,289,444.6a83.5,83.5,0,0,0,12.07-15.33q12.75-20.77,12.76-48.4" transform="translate(-128.64 160.66)"/></g></g></g></svg>